<?xml version="1.0" encoding="utf-8"?>
<!-- Generator: Adobe Illustrator 18.0.0, SVG Export Plug-In . SVG Version: 6.00 Build 0)  -->
<!DOCTYPE svg PUBLIC "-//W3C//DTD SVG 1.1//EN" "http://www.w3.org/Graphics/SVG/1.1/DTD/svg11.dtd">
<svg version="1.1" id="Layer_1" xmlns="http://www.w3.org/2000/svg" xmlns:xlink="http://www.w3.org/1999/xlink" x="0px" y="0px"
	 viewBox="16.2 79.5 267.6 131" enable-background="new 16.2 79.5 267.6 131" xml:space="preserve">
<g>
	<g>
		<g>
			<path fill="#FFFFFF" d="M107.5,84.8c-5,0-8.7,3.7-8.7,8.4c0,4.7,4.1,8.4,8.7,8.4c5,0,8.7-3.7,8.7-8.4
				C116.2,88.5,112.1,84.8,107.5,84.8z"/>
		</g>
	</g>
	<g>
		<g>
			<path fill="#FFFFFF" d="M281.2,155.6c-2.5-1.2-6.2-0.6-8.1,2.5c-3.4,5-6.5,7.2-8.7,7.8c-0.6-4.4-0.3-23.7-0.3-23.7
				c0-9.7,0.6-15.6,0.6-21.8c0-4.7-3.4-8.4-8.1-8.4c-4.7,0-8.1,3.7-8.1,8.4c0,6.2,0.3,10.3,0,17.2c-0.3,14-7.5,16.8-14.3,16.8
				c-6.9,0-9.7-7.2-9.7-15.3c0-6.9,0.3-12.2,0.3-18.4c0-4.7-2.8-8.4-7.5-8.4s-7.8,3.7-7.8,8.4c0,1.9,0,4.1,0,6.5
				c-0.9,15.9-4.1,27.1-14.7,27.1c-4.1,0-5.6-2.2-5.6-5.3c0.3-36.2,1.2-50.2,1.2-59.6c0-4.7-3.4-8.4-8.1-8.4c-4.7,0-8.7,4.1-8.7,8.7
				c0,8.1,0.3,14.3,0.6,36.2c-0.9,18.4-5,28.4-16.2,28.4c-5.6,0-7.8-3.7-7.8-6.9c0-9,0.3-20.3,0.6-29.6c0,0,6.5,0,9.7,0
				c3.1,0,5.6-2.2,5.6-5.3c0-3.1-1.9-5.6-6.5-5.6c-5,0-8.4,0-8.7,0c0-5.3,0.3-10.3,0.3-13.7c0-4.7-3.7-8.4-8.4-8.4
				c-4.7,0-8.4,3.7-8.4,8.4c0,4.1,0,13.7,0,13.7c-3.7,0-5.9,2.5-5.9,5.3s2.2,5,6.5,5c0,0,0,5.3,0,11.9c-0.6,17.5-4.1,24.9-13.7,24.9
				c-5,0-6.5-4.7-6.5-7.5c0-5.3,0.3-15,0.9-29.9c0.3-4.4-3.1-8.7-7.8-8.7c-4.7,0-7.8,4.1-7.8,8.4c0,0,0,1.6,0,4.1
				c-0.6,12.2-4.1,24.6-19.6,31.8c12.5-21.8,0.3-44.9-18.7-44.9c-9,0-14.7,3.1-18.4,6.2c0-6.9,0.3-18.7,0.3-18.7
				c0-8.4-3.1-15-13.4-15.3c-5.9,0-10.6,2.5-13.4,8.7c-0.9,2.2-0.6,4.7,1.2,5.9c1.6,0.9,4.4,0.3,5.6-1.6c0.9-1.2,1.6-1.2,2.2-1.2
				c1.2,0,1.2,2.2,1.2,3.4c0,0.9,0.9,12.8,0.6,49.9c0,10.3,8.1,23.4,27.8,23.4c19.6,0,34.9-5,44.6-15.3c0.3,9.7,9.7,15,18.4,15
				c9,0,15.6-1.9,20-6.9c3.4,4.1,9.4,6.9,17.2,6.9c9,0,15.6-3.1,20.6-8.7c3.1,5.3,10,8.7,16.8,8.7c10.6,0,17.5-3.4,21.8-10.6
				c3.7,5.9,10.3,10.3,19.3,10.6c11.9,0.3,16.5-5.6,16.5-5.6l0.6,7.2c-21.2,5.3-35.9,9.4-35.9,23.7c0,9,8.4,19.6,27.4,17.2
				c21.8-3.1,22.8-20.3,22.8-31.8c10.3-3.4,14.3-7.8,17.5-14.7C284.3,160.9,284.3,157.4,281.2,155.6z M55.4,154.3
				c-7.5,0-12.2-2.8-12.5-9c-0.3-2.5,0-4.4,0-5.9c0.6-9,6.5-15,13.1-16.2c8.1-1.6,13.4,1.9,13.4,12.2
				C69.4,142.2,67.5,154,55.4,154.3z M240.3,198.9c-5.3,1.2-11.9,0-11.9-5.9c0-6.2,13.4-9.7,24-11.9
				C252.8,190.5,251.5,197,240.3,198.9z"/>
		</g>
	</g>
</g>
</svg>
